<?xml version="1.0" encoding="UTF-8" standalone="no"?>
<!DOCTYPE svg PUBLIC "-//W3C//DTD SVG 1.1//EN" "http://www.w3.org/Graphics/SVG/1.1/DTD/svg11.dtd">
<svg width="100%" height="100%" viewBox="0 0 1135 1136" version="1.1" xmlns="http://www.w3.org/2000/svg" xmlns:xlink="http://www.w3.org/1999/xlink" xml:space="preserve" xmlns:serif="http://www.serif.com/" style="fill-rule:evenodd;clip-rule:evenodd;stroke-linejoin:round;stroke-miterlimit:2;">
    <g transform="matrix(1,0,0,1,0.658288,0.389992)">
        <g id="Plan-de-travail2" serif:id="Plan de travail2" transform="matrix(1,0,0,1,-34.316576,-919.779983)">
            <rect x="33.658" y="919.39" width="1134.683" height="1135.367" style="fill:white;fill-opacity:0;"/>
            <g transform="matrix(16.666668,0,0,16.666668,874.858355,1246.473351)">
                <path d="M0,28.872C-0.073,29.584 -0.614,30.118 -1.323,30.189C-2.793,30.337 -4.493,30.08 -5.988,30.19C-6.687,30.094 -7.252,29.518 -7.31,28.811C-7.508,25.359 -7.038,21.595 -7.305,18.18C-7.65,13.779 -14.311,13.702 -14.615,18.364C-14.843,21.872 -14.403,25.61 -14.654,29.135C-14.841,29.722 -15.308,30.127 -15.932,30.189C-17.041,30.301 -19.423,30.295 -20.538,30.193C-21.283,30.124 -21.856,29.556 -21.919,28.811L-21.919,9.703C-21.911,8.99 -21.401,8.408 -20.714,8.268C-19.173,8.362 -17.449,8.124 -15.929,8.26C-15.446,8.303 -15.008,8.593 -14.785,9.019C-14.752,9.081 -14.612,9.37 -14.612,9.399L-14.612,10.597C-12.355,7.878 -8.593,6.807 -5.234,8C-2.019,9.143 -0.177,12.205 0,15.538C0.232,19.908 -0.181,24.481 0,28.872M-28.485,5.333C-30.909,5.333 -32.873,3.367 -32.873,0.942C-32.873,-1.483 -30.909,-3.448 -28.485,-3.448C-26.062,-3.448 -24.098,-1.483 -24.098,0.942C-24.098,3.367 -26.062,5.333 -28.485,5.333M-24.799,30.19L-32.168,30.19L-32.168,8.262L-24.799,8.262L-24.799,30.19ZM-16.432,-19.625C-35.231,-19.625 -50.472,-4.375 -50.472,14.436C-50.472,33.248 -35.231,48.497 -16.432,48.497C2.368,48.497 17.609,33.248 17.609,14.436C17.609,-4.375 2.368,-19.625 -16.432,-19.625" style="fill:white;fill-rule:nonzero;"/>
            </g>
        </g>
    </g>
</svg>
