<?xml version="1.0" encoding="UTF-8" standalone="no"?>
<!DOCTYPE svg PUBLIC "-//W3C//DTD SVG 1.1//EN" "http://www.w3.org/Graphics/SVG/1.1/DTD/svg11.dtd">
<svg width="100%" height="100%" viewBox="0 0 8000 5000" version="1.1" xmlns="http://www.w3.org/2000/svg" xmlns:xlink="http://www.w3.org/1999/xlink" xml:space="preserve" xmlns:serif="http://www.serif.com/" style="fill-rule:evenodd;clip-rule:evenodd;stroke-linecap:round;stroke-miterlimit:10;">
    <g transform="matrix(5.555556,0,0,5.555556,353.036111,5198.652778)">
        <path d="M0,-940.806C78.846,-862.34 110.353,-749.97 127.381,-641.893C144.409,-533.815 150.588,-422.693 191.772,-320.516C261.092,-148.53 433.413,-19.26 619.031,0" style="fill:none;fill-rule:nonzero;stroke:url(#_Linear1);stroke-width:90px;"/>
    </g>
    <g transform="matrix(5.555556,0,0,5.555556,3305.071111,-1500.956667)">
        <path d="M0,652.803C75.55,571.159 186.701,535.589 294.088,514.646C401.475,493.703 512.3,483.49 612.914,438.622C782.267,363.1 905.191,186.195 917.695,0" style="fill:none;fill-rule:nonzero;stroke:url(#_Linear2);stroke-width:90px;"/>
    </g>
    <g transform="matrix(5.555556,0,0,5.555556,3546.278889,3698.314444)">
        <path d="M0,110.919C58.252,84.549 125.896,91.135 188.384,104.703C250.871,118.271 312.923,138.392 376.861,137.553C484.481,136.14 588.672,69.582 635.195,-27.473" style="fill:none;fill-rule:nonzero;stroke:url(#_Linear3);stroke-width:90px;"/>
    </g>
    <defs>
        <linearGradient id="_Linear1" x1="0" y1="0" x2="1" y2="0" gradientUnits="userSpaceOnUse" gradientTransform="matrix(-319.983,548.548,-548.548,-319.983,458.3425,-725.5385)"><stop offset="0" style="stop-color:rgb(41,53,139);stop-opacity:1"/><stop offset="1" style="stop-color:rgb(128,54,141);stop-opacity:1"/></linearGradient>
        <linearGradient id="_Linear2" x1="0" y1="0" x2="1" y2="0" gradientUnits="userSpaceOnUse" gradientTransform="matrix(559.811,299.843,-299.843,559.811,198.4732,186.9422)"><stop offset="0" style="stop-color:rgb(41,53,139);stop-opacity:1"/><stop offset="1" style="stop-color:rgb(128,54,141);stop-opacity:1"/></linearGradient>
        <linearGradient id="_Linear3" x1="0" y1="0" x2="1" y2="0" gradientUnits="userSpaceOnUse" gradientTransform="matrix(261.721,318.693,-318.693,261.721,195.0538,-107.4956)"><stop offset="0" style="stop-color:rgb(41,53,139);stop-opacity:1"/><stop offset="1" style="stop-color:rgb(128,54,141);stop-opacity:1"/></linearGradient>
    </defs>
</svg>
