<?xml version="1.0" encoding="UTF-8" standalone="no"?>
<!DOCTYPE svg PUBLIC "-//W3C//DTD SVG 1.1//EN" "http://www.w3.org/Graphics/SVG/1.1/DTD/svg11.dtd">
<svg width="100%" height="100%" viewBox="0 0 8000 5000" version="1.1" xmlns="http://www.w3.org/2000/svg" xmlns:xlink="http://www.w3.org/1999/xlink" xml:space="preserve" xmlns:serif="http://www.serif.com/" style="fill-rule:evenodd;clip-rule:evenodd;stroke-linecap:round;stroke-miterlimit:10;">
    <g transform="matrix(5.555556,0,0,5.555556,2754.751111,45.013333)">
        <path d="M0,932.126C-79.927,854.761 -112.991,742.84 -131.517,635.009C-150.043,527.179 -157.764,416.152 -200.361,314.556C-272.06,143.55 -446.159,16.683 -632.026,0" style="fill:none;fill-rule:nonzero;stroke:url(#_Linear1);stroke-width:90px;"/>
    </g>
    <g transform="matrix(5.555556,0,0,5.555556,3531.979444,4778.445)">
        <path d="M0,-868.391C86.984,-799.055 130.638,-690.824 159.429,-585.27C188.219,-479.715 206.561,-369.943 258.714,-272.905C346.496,-109.57 531.969,0 718.579,-1.235" style="fill:none;fill-rule:nonzero;stroke:url(#_Linear2);stroke-width:90px;"/>
    </g>
    <g transform="matrix(5.555556,0,0,5.555556,5687.78,-317.546667)">
        <path d="M0,392.798C41.751,344.367 105.887,321.881 168.283,307.899C230.679,293.917 295.437,286.063 353.087,258.4C450.124,211.839 516.641,107.621 518.011,0" style="fill:none;fill-rule:nonzero;stroke:url(#_Linear3);stroke-width:90px;"/>
    </g>
    <defs>
        <linearGradient id="_Linear1" x1="0" y1="0" x2="1" y2="0" gradientUnits="userSpaceOnUse" gradientTransform="matrix(312.34,-552.936,552.936,312.34,-461.286,723.2396)"><stop offset="0" style="stop-color:rgb(41,53,139);stop-opacity:1"/><stop offset="1" style="stop-color:rgb(128,54,141);stop-opacity:1"/></linearGradient>
        <linearGradient id="_Linear2" x1="0" y1="0" x2="1" y2="0" gradientUnits="userSpaceOnUse" gradientTransform="matrix(-257.824,580.363,-580.363,-257.824,479.2037,-704.7461)"><stop offset="0" style="stop-color:rgb(41,53,139);stop-opacity:1"/><stop offset="1" style="stop-color:rgb(128,54,141);stop-opacity:1"/></linearGradient>
        <linearGradient id="_Linear3" x1="0" y1="0" x2="1" y2="0" gradientUnits="userSpaceOnUse" gradientTransform="matrix(371.514,178.996,-178.996,371.514,85.0496,112.5894)"><stop offset="0" style="stop-color:rgb(41,53,139);stop-opacity:1"/><stop offset="1" style="stop-color:rgb(128,54,141);stop-opacity:1"/></linearGradient>
    </defs>
</svg>
